<svg width="1024" height="1024" viewBox="0 0 100 100" xmlns="http://www.w3.org/2000/svg"><g transform="translate(16,16) scale(0.68)">
    <path d="M37 35 C37 19, 63 19, 63 35" stroke="#bdf3d4" stroke-width="5.4" stroke-linecap="round" fill="none"></path>
    <path d="M24.5 33 H75.5 a5 5 0 0 1 4.98 5.44 l-3.3 39.6 A8 8 0 0 1 73.2 85 H26.8 a8 8 0 0 1-7.97-7.36 l-3.3-39.6 A5 5 0 0 1 24.5 33 Z" fill="#eafff3"></path>
    <path d="M24.5 33 H75.5 a5 5 0 0 1 4.98 5.44 l-.62 7.4 A3 3 0 0 1 76.9 48.8 H23.1 A3 3 0 0 1 20.14 45.84 l-.62-7.4 A5 5 0 0 1 24.5 33 Z" fill="#bdf3d4"></path>
    <circle cx="41" cy="63" r="3.4" fill="#0a3b2c"></circle><circle cx="59" cy="63" r="3.4" fill="#0a3b2c"></circle>
    <path d="M39.6 71.5 C44 78, 56 78, 60.4 71.5" stroke="#0a3b2c" stroke-width="4" stroke-linecap="round" fill="none"></path>
    <path d="M73 20 L75 25.4 L80.4 27.4 L75 29.4 L73 34.8 L71 29.4 L65.6 27.4 L71 25.4 Z" fill="#ffffff"></path></g></svg>